STARTFONT 2.1
FONT HAN-GB2312
SIZE 20 72 72
FONTBOUNDINGBOX 11 20 0 0
STARTPROPERTIES 1
BITCOUNT 8
ENDPROPERTIES
CHARS 32
STARTCHAR  00A8
ENCODING  168
SWIDTH  1000 0
DWIDTH  6 0
BBX  8 3 -1 11
BITMAP
E0FFFF0000E0FFFF
E0FFFF0000E0FFFF
C0E0E00000C0E0E0
ENDCHAR
STARTCHAR  00B1
ENCODING  177
SWIDTH  1000 0
DWIDTH  11 0
BBX  10 9 0 0
BITMAP
0000000020A000000000
0000000030FF00000000
0030303040FF30303020
20FFFFFFFFFFFFFFFFF0
0000000030FF00000000
0000000030FF00000000
0000000020A000000000
00303030303030303020
20FFFFFFFFFFFFFFFFF0
ENDCHAR
STARTCHAR  00B7
ENCODING  183
SWIDTH  1000 0
DWIDTH  5 0
BBX  3 3 1 4
BITMAP
FFFFFF
FFFFFF
FFFFFF
ENDCHAR
STARTCHAR  00E0
ENCODING  224
SWIDTH  1000 0
DWIDTH  12 0
BBX  11 15 0 0
BITMAP
000000A0E0C02000000000
00000010E0FFA000000000
0000000020E0FF30000000
0000000000001000000000
30FFFFFFFFFFFFFFE04000
30FFFFFFFFFFFFFFFFFF30
10404040404060C0FFFFA0
0000000000000010F0FFE0
0000000000000000E0FFFF
0080F0FFFFFFFFFFFFFFFF
80FFFFFFF0F0F0F0FFFFFF
E0FFFF4000000000E0FFFF
E0FFFF8040404040E0FFFF
80FFFFFFFFFFFFFFFFFFFF
0080F0FFFFFFFFFFFFFFFF
ENDCHAR
STARTCHAR  00E1
ENCODING  225
SWIDTH  1000 0
DWIDTH  12 0
BBX  11 15 0 0
BITMAP
000000000060E0E0600000
0000000010F0FFA0000000
0000000080FFA000000000
0000000020200000000000
30FFFFFFFFFFFFFFE04000
30FFFFFFFFFFFFFFFFFF30
10404040404060C0FFFFA0
0000000000000010F0FFE0
0000000000000000E0FFFF
00A0F0FFFFFFFFFFFFFFFF
80FFFFFFF0F0F0F0FFFFFF
E0FFFF4000000000E0FFFF
E0FFFF8040404040E0FFFF
80FFFFFFFFFFFFFFFFFFFF
0080F0FFFFFFFFFFFFFFFF
ENDCHAR
STARTCHAR  00E8
ENCODING  232
SWIDTH  1000 0
DWIDTH  11 0
BBX  10 15 1 0
BITMAP
0010A0E0A00000000000
000030F0FF6000000000
00000030F0E000000000
00000000101000000000
000040E0FFFFFFFFFF30
0060FFFFFFFFFFFFFF30
20F0FFE0604040404010
80FFFF40000000000000
E0FFFF30303030303010
FFFFFFFFFFFFFFFFFF30
F0FFFFFFFFFFFFFFFF30
C0FFFF10000000000000
60FFFFA0100000000000
00C0FFFFFFF0F0F0F030
000080F0FFFFFFFFFF30
ENDCHAR
STARTCHAR  00E9
ENCODING  233
SWIDTH  1000 0
DWIDTH  11 0
BBX  10 15 1 0
BITMAP
00000000A0E0C0200000
00000030FFFF60000000
000000C0FF6000000000
00000020100000000000
000040E0FFFFFFFFFF30
0060FFFFFFFFFFFFFF30
20F0FFE0604040404010
80FFFF40000000000000
E0FFFF30303030303010
FFFFFFFFFFFFFFFFFF30
F0FFFFFFFFFFFFFFFF30
C0FFFF10000000000000
60FFFFA0100000000000
00C0FFFFFFF0F0F0F030
000080F0FFFFFFFFFF30
ENDCHAR
STARTCHAR  00EA
ENCODING  234
SWIDTH  1000 0
DWIDTH  11 0
BBX  10 15 1 0
BITMAP
000040E0E0C030000000
0010E0F060FFE0100000
00C0FF600080FFC00000
00202000000020200000
000040E0FFFFFFFFFF30
0060FFFFFFFFFFFFFF30
20F0FFE0604040404010
80FFFF40000000000000
E0FFFF30303030303010
FFFFFFFFFFFFFFFFFF30
F0FFFFFFFFFFFFFFFF30
C0FFFF10000000000000
60FFFFA0100000000000
00C0FFFFFFF0F0F0F030
000080F0FFFFFFFFFF30
ENDCHAR
STARTCHAR  00EC
ENCODING  236
SWIDTH  1000 0
DWIDTH  4 0
BBX  6 15 -1 0
BITMAP
10C0E0A00000
0030F0FF6000
000040F0E000
000000101000
0000FFFFE000
0000FFFFE000
0000FFFFE000
0000FFFFE000
0000FFFFE000
0000FFFFE000
0000FFFFE000
0000FFFFE000
0000FFFFE000
0000FFFFE000
0000FFFFE000
ENDCHAR
STARTCHAR  00ED
ENCODING  237
SWIDTH  1000 0
DWIDTH  4 0
BBX  6 15 0 0
BITMAP
0000A0E0C020
0030FFFF4000
00C0FF600000
002010000000
00FFFFE00000
00FFFFE00000
00FFFFE00000
00FFFFE00000
00FFFFE00000
00FFFFE00000
00FFFFE00000
00FFFFE00000
00FFFFE00000
00FFFFE00000
00FFFFE00000
ENDCHAR
STARTCHAR  00F2
ENCODING  242
SWIDTH  1000 0
DWIDTH  13 0
BBX  12 15 1 0
BITMAP
00000060E0E0400000000000
00000000A0FFE00000000000
0000000000C0FF6000000000
000000000010302000000000
000030A0E0FFFFE0A0300000
0080FFFFFFFFFFFFFFFF6000
40FFFFFFA06060A0FFFFFF30
C0FFFF8000000000A0FFFFA0
F0FFFF200000000020FFFFE0
FFFFFF000000000000FFFFFF
F0FFFF300000000020FFFFF0
C0FFFFA00000000080FFFFC0
40FFFFFFC06060A0FFFFFF60
0080FFFFFFFFFFFFFFFF8000
000030A0E0FFFFE0A0400000
ENDCHAR
STARTCHAR  00F3
ENCODING  243
SWIDTH  1000 0
DWIDTH  13 0
BBX  12 15 1 0
BITMAP
000000000020E0E0A0100000
0000000000A0FFE020000000
0000000020FFF02000000000
000000002040200000000000
000030A0E0FFFFE0A0300000
0080FFFFFFFFFFFFFFFF6000
40FFFFFFA06060A0FFFFFF30
C0FFFF8000000000A0FFFFA0
F0FFFF200000000020FFFFE0
FFFFFF000000000000FFFFFF
F0FFFF300000000020FFFFF0
C0FFFFA00000000080FFFFC0
40FFFFFFC06060A0FFFFFF60
0080FFFFFFFFFFFFFFFF8000
000030A0E0FFFFE0A0400000
ENDCHAR
STARTCHAR  00F7
ENCODING  247
SWIDTH  1000 0
DWIDTH  11 0
BBX  11 9 0 0
BITMAP
0000000000200000000000
00000000A0FFE000000000
0000000080FFA000000000
1030303030303030303010
60FFFFFFFFFFFFFFFFFF80
0000000000000000000000
0000000080FFC000000000
00000000A0FFE000000000
0000000000200000000000
ENDCHAR
STARTCHAR  00F9
ENCODING  249
SWIDTH  1000 0
DWIDTH  11 0
BBX  10 15 1 0
BITMAP
000060E0E04000000000
000000A0FFE000000000
00000000A0FF60000000
00000000001010000000
FFFFE000000000FFFFE0
FFFFE000000000FFFFE0
FFFFE000000000FFFFE0
FFFFE000000000FFFFE0
FFFFE000000000FFFFE0
FFFFE000000000FFFFE0
FFFFE000000000FFFFE0
FFFFE000000000FFFFE0
E0FFFF80404040FFFFE0
80FFFFFFFFFFFFFFFFE0
0080E0FFFFFFFFFFFFE0
ENDCHAR
STARTCHAR  00FA
ENCODING  250
SWIDTH  1000 0
DWIDTH  11 0
BBX  10 15 1 0
BITMAP
0000000030E0E0800000
00000000C0FFC0100000
00000040FFE010000000
00000010201000000000
FFFFE000000000FFFFE0
FFFFE000000000FFFFE0
FFFFE000000000FFFFE0
FFFFE000000000FFFFE0
FFFFE000000000FFFFE0
FFFFE000000000FFFFE0
FFFFE000000000FFFFE0
FFFFE000000000FFFFE0
E0FFFF80404040FFFFE0
80FFFFFFFFFFFFFFFFE0
0080E0FFFFFFFFFFFFE0
ENDCHAR
STARTCHAR  00FC
ENCODING  252
SWIDTH  1000 0
DWIDTH  11 0
BBX  12 14 0 0
BITMAP
0000E0FFFF0000FFFFE00000
0000E0FFFF0000FFFFE00000
0000C0E0E00000E0E0C00000
208080800000000080808020
40FFFFE000000000FFFFFF30
40FFFFE000000000FFFFFF30
40FFFFE000000000FFFFFF30
40FFFFE000000000FFFFFF30
40FFFFE000000000FFFFFF30
40FFFFE000000000FFFFFF30
40FFFFF000000000FFFFFF30
30FFFFFF80404040FFFFFF30
00C0FFFFFFFFFFFFFFFFFF30
0010A0E0FFFFFFFFFFFFFF30
ENDCHAR
STARTCHAR  02C7
ENCODING  711
SWIDTH  1000 0
DWIDTH  8 0
BBX  8 4 0 11
BITMAP
80E0800000C0E040
20F0FF3080FFC000
0060FFE0F0F02000
0000608080400000
ENDCHAR
STARTCHAR  0394
ENCODING  916
SWIDTH  1000 0
DWIDTH  12 0
BBX  12 14 0 0
BITMAP
000000000020400000000000
000000000080E00000000000
0000000000E0FF4000000000
0000000060FFFFA000000000
00000000C060FFFF10000000
00000020E000C0FF80000000
00000080800060FFE0000000
000000E0100000E0FF400000
000060A000000080FFA00000
0000C04000000020FFFF2000
0030E00000000000C0FF8000
00A060000000000040FFE000
10F020101010101010E0FF40
60FFFFFFFFFFFFFFFFFFFFC0
ENDCHAR
STARTCHAR  03A9
ENCODING  937
SWIDTH  1000 0
DWIDTH  15 0
BBX  14 14 1 0
BITMAP
00000060A0E0FFFFE0A060000000
0020C0FFE040101040E0FFC02000
10E0FFE0100000000010E0FFE010
60FFFF6000000000000060FFFF60
C0FFFF2000000000000020FFFFC0
E0FFFF0000000000000000FFFFE0
C0FFFF1000000000000010FFFFC0
80FFFF4000000000000040FFFF80
20F0FFA0000000000000A0FFF020
0040F0FF800000000080FFF04000
60001080E0E00000E0E080100080
E020000000FF0000FF00000040E0
E0FFF0F0F0FF0000FFF0F0F0FFE0
E0FFFFFFFFFF0000FFFFFFFFFFE0
ENDCHAR
STARTCHAR  03C0
ENCODING  960
SWIDTH  1000 0
DWIDTH  11 0
BBX  10 10 1 0
BITMAP
00000000000000002030
60E0FFFFFFFFFFFFFF30
C030FF3030E0FF301000
1000FF0000E0FF000000
0010FF0000E0FF000000
0010FF0000E0FF000000
0030F00000E0FF000020
6060E00000C0FF001060
E0E0A00000A0FF206040
A0E030000030E0F0A000
ENDCHAR
STARTCHAR  2014
ENCODING  8212
SWIDTH  1000 0
DWIDTH  18 0
BBX  17 3 0 5
BITMAP
60FFFFFFFFFFFFFFFFFFFFFFFFFFFFFFF0
60FFFFFFFFFFFFFFFFFFFFFFFFFFFFFFF0
60FFFFFFFFFFFFFFFFFFFFFFFFFFFFFFF0
ENDCHAR
STARTCHAR  2018
ENCODING  8216
SWIDTH  1000 0
DWIDTH  4 0
BBX  5 5 1 9
BITMAP
0060C00000
A0FFE00000
FFFFFFFF10
FFFFFFFF10
FFFFFFFF10
ENDCHAR
STARTCHAR  2019
ENCODING  8217
SWIDTH  1000 0
DWIDTH  4 0
BBX  5 6 0 8
BITMAP
30FFFFFFE0
30FFFFFFE0
30FFFFFFE0
1040FFFFA0
0000FFA010
0000300000
ENDCHAR
STARTCHAR  220F
ENCODING  8719
SWIDTH  1000 0
DWIDTH  16 0
BBX  16 19 0 -4
BITMAP
A0FFFFFFFFFFFFFFFFFFFFFFFFFFFFC0
0000E0FF0000000000000000E0FF0000
0000E0FF0000000000000000E0FF0000
0000E0FF0000000000000000E0FF0000
0000E0FF0000000000000000E0FF0000
0000E0FF0000000000000000E0FF0000
0000E0FF0000000000000000E0FF0000
0000E0FF0000000000000000E0FF0000
0000E0FF0000000000000000E0FF0000
0000E0FF0000000000000000E0FF0000
0000E0FF0000000000000000E0FF0000
0000E0FF0000000000000000E0FF0000
0000E0FF0000000000000000E0FF0000
0000E0FF0000000000000000E0FF0000
0000E0FF0000000000000000E0FF0000
0000E0FF0000000000000000E0FF0000
0000E0FF0000000000000000E0FF0000
0000E0FF0000000000000000E0FF0000
A0FFFFFFFFC00000000080FFFFFFFFC0
ENDCHAR
STARTCHAR  2211
ENCODING  8721
SWIDTH  1000 0
DWIDTH  14 0
BBX  14 19 0 -4
BITMAP
00A0FFFFFFFFFFFFFFFFFFE01000
0010E0FF801010103080F0FF4000
000030FFFF300000000040FF6000
00000060FFE01000000000A08000
00000000A0FFA000000000306000
0000000010E0FF60000000000000
000000000030FFFF300000000000
00000000000080FFE01000000000
00000000000000C0FFA000000000
0000000000000010E0FF30000000
0000000000000010E06000000000
00000000000000C0800000000000
000000000000A0A0000000000000
000000000080A000000000000000
0000000060C0100000000000A020
00000040E010000000000060F000
000030E020000000002080FFC000
0020E0F0F0F0F0F0FFFFFFFF6000
10E0FFFFFFFFFFFFFFFFFFC01000
ENDCHAR
STARTCHAR  221A
ENCODING  8730
SWIDTH  1000 0
DWIDTH  11 0
BBX  13 17 -1 0
BITMAP
00000000000000000000001010
0000000000000000000030FFE0
00000000000000000000A08000
00000000000000000010F03000
00000000000000000060C00000
000000000000000000C0600000
000000000000000020F0100000
000030400000000080A0000000
20E0F0E000000000E040000000
001080FF40000040E000000000
000030FFA00000A08000000000
000000C0F01010F01000000000
00000060FF6060A00000000000
00000010F0C0C0400000000000
00000000A0FFE0000000000000
0000000040FF80000000000000
0000000000E020000000000000
ENDCHAR
STARTCHAR  221E
ENCODING  8734
SWIDTH  1000 0
DWIDTH  14 0
BBX  13 8 1 2
BITMAP
00002010000000001020000000
10C0FFFFA0100080FFFFE03000
A060101080A080FF801020A010
8000000000A0FFA00000002060
8000000000A0F0100000000080
8000000040FFE0200000004060
60803060F0E030E0603060E010
0080F0FFA0100040E0FFE03000
ENDCHAR
STARTCHAR  222B
ENCODING  8747
SWIDTH  1000 0
DWIDTH  5 0
BBX  10 19 -2 -4
BITMAP
000000000010A0FFE020
0000000000C060A0FF40
0000000040FF20002000
00000000A0FF00000000
00000000E0F000000000
00000000F0E000000000
00000000FFE000000000
00000000FFE000000000
00000000FFE000000000
00000000FFE000000000
00000000FFE000000000
00000000FFE000000000
00000000FFE000000000
00000010FFC000000000
00000020FFA000000000
00000030FF6000000000
10400040FF2000000000
60FF80A0A00000000000
20E0F0A0000000000000
ENDCHAR
STARTCHAR  2248
ENCODING  8776
SWIDTH  1000 0
DWIDTH  11 0
BBX  11 7 0 1
BITMAP
0000000000000000000010
1080E0F0E0A040102080A0
A0F0806080C0F0FFFFC040
8020102010000020102080
40C0FFFFFFE0A06080F0A0
C0A020003060C0F0E08010
2000000000000000000000
ENDCHAR
STARTCHAR  2260
ENCODING  8800
SWIDTH  1000 0
DWIDTH  11 0
BBX  11 9 0 0
BITMAP
0000000000000000301000
0000000000000030F08000
00303030303040F0C03000
20FFFFFFFFFFFFFFFFFF10
0000000060F06000000000
20FFFFFFFFFFFFFFFFFF10
0030C0F040303030303000
0080F03000000000000000
0010300000000000000000
ENDCHAR
STARTCHAR  2264
ENCODING  8804
SWIDTH  1000 0
DWIDTH  11 0
BBX  11 9 0 0
BITMAP
0000000000000000206010
00000000002080C0FFF020
00003080E0FFF0A0601000
20E0FFE0A0400000000000
10E0FFF0A0601000000000
00002060C0FFFFC0602000
00000000001060A0F0FF20
0030303030303030308010
20FFFFFFFFFFFFFFFFFF20
ENDCHAR
STARTCHAR  2265
ENCODING  8805
SWIDTH  1000 0
DWIDTH  11 0
BBX  11 9 0 0
BITMAP
1060100000000000000000
20F0FFC080200000000000
001060A0F0FFE080300000
000000000040A0E0FFE020
000000001060A0F0FFE010
002060C0FFFFC060200000
20FFF0A060100000000000
1080303030303030303000
20FFFFFFFFFFFFFFFFFF20
ENDCHAR
ENDFONT
